<svg xmlns="http://www.w3.org/2000/svg" xmlns:xlink="http://www.w3.org/1999/xlink" width="1536" zoomAndPan="magnify" viewBox="0 0 1152 767.999994" height="1024" preserveAspectRatio="xMidYMid meet" version="1.0"><defs><clipPath id="e32969f701"><path d="M 144 4 L 507 4 L 507 367 L 144 367 Z M 144 4 " clip-rule="nonzero"/></clipPath><clipPath id="f4c5eb26f6"><path d="M 139.4375 116.273438 L 256.164062 -0.453125 L 510.960938 254.34375 L 394.238281 371.070312 Z M 139.4375 116.273438 " clip-rule="nonzero"/></clipPath><clipPath id="7bab306d19"><path d="M 147.238281 109.378906 L 249.722656 6.894531 C 251.550781 5.066406 254.03125 4.039062 256.617188 4.039062 C 259.203125 4.039062 261.683594 5.066406 263.511719 6.894531 L 504.066406 247.449219 C 505.898438 249.277344 506.925781 251.757812 506.925781 254.34375 C 506.925781 256.929688 505.898438 259.410156 504.066406 261.238281 L 401.585938 363.722656 C 399.757812 365.550781 397.277344 366.578125 394.691406 366.578125 C 392.105469 366.578125 389.625 365.550781 387.796875 363.722656 L 147.238281 123.167969 C 145.410156 121.335938 144.382812 118.859375 144.382812 116.273438 C 144.382812 113.6875 145.410156 111.207031 147.238281 109.378906 Z M 147.238281 109.378906 " clip-rule="nonzero"/></clipPath><clipPath id="379dddd347"><path d="M 0.28125 0 L 363 0 L 363 362.71875 L 0.28125 362.71875 Z M 0.28125 0 " clip-rule="nonzero"/></clipPath><clipPath id="1214eddc36"><path d="M -4.5625 112.273438 L 112.164062 -4.453125 L 366.960938 250.34375 L 250.238281 367.070312 Z M -4.5625 112.273438 " clip-rule="nonzero"/></clipPath><clipPath id="c7387a2da8"><path d="M 3.238281 105.378906 L 105.722656 2.894531 C 107.550781 1.066406 110.03125 0.0390625 112.617188 0.0390625 C 115.203125 0.0390625 117.683594 1.066406 119.511719 2.894531 L 360.066406 243.449219 C 361.898438 245.277344 362.925781 247.757812 362.925781 250.34375 C 362.925781 252.929688 361.898438 255.410156 360.066406 257.238281 L 257.585938 359.722656 C 255.757812 361.550781 253.277344 362.578125 250.691406 362.578125 C 248.105469 362.578125 245.625 361.550781 243.796875 359.722656 L 3.238281 119.167969 C 1.410156 117.335938 0.382812 114.859375 0.382812 112.273438 C 0.382812 109.6875 1.410156 107.207031 3.238281 105.378906 Z M 3.238281 105.378906 " clip-rule="nonzero"/></clipPath><clipPath id="735006f8ce"><rect x="0" width="363" y="0" height="363"/></clipPath><clipPath id="95ae1d1b2c"><path d="M 415 4 L 779 4 L 779 367 L 415 367 Z M 415 4 " clip-rule="nonzero"/></clipPath><clipPath id="676139ccdb"><path d="M 410.753906 116.273438 L 527.480469 -0.453125 L 782.277344 254.34375 L 665.550781 371.070312 Z M 410.753906 116.273438 " clip-rule="nonzero"/></clipPath><clipPath id="5c5095c5da"><path d="M 418.554688 109.378906 L 521.039062 6.894531 C 522.867188 5.066406 525.347656 4.039062 527.933594 4.039062 C 530.519531 4.039062 533 5.066406 534.828125 6.894531 L 775.382812 247.449219 C 777.210938 249.277344 778.238281 251.757812 778.238281 254.34375 C 778.238281 256.929688 777.210938 259.410156 775.382812 261.238281 L 672.898438 363.722656 C 671.070312 365.550781 668.589844 366.578125 666.007812 366.578125 C 663.421875 366.578125 660.941406 365.550781 659.113281 363.722656 L 418.554688 123.167969 C 416.726562 121.335938 415.699219 118.859375 415.699219 116.273438 C 415.699219 113.6875 416.726562 111.207031 418.554688 109.378906 Z M 418.554688 109.378906 " clip-rule="nonzero"/></clipPath><clipPath id="7ba5374798"><path d="M 0.480469 0 L 363.359375 0 L 363.359375 362.71875 L 0.480469 362.71875 Z M 0.480469 0 " clip-rule="nonzero"/></clipPath><clipPath id="e7f0a0ad53"><path d="M -4.246094 112.273438 L 112.480469 -4.453125 L 367.277344 250.34375 L 250.550781 367.070312 Z M -4.246094 112.273438 " clip-rule="nonzero"/></clipPath><clipPath id="3ace4a05d2"><path d="M 3.554688 105.378906 L 106.039062 2.894531 C 107.867188 1.066406 110.347656 0.0390625 112.933594 0.0390625 C 115.519531 0.0390625 118 1.066406 119.828125 2.894531 L 360.382812 243.449219 C 362.210938 245.277344 363.238281 247.757812 363.238281 250.34375 C 363.238281 252.929688 362.210938 255.410156 360.382812 257.238281 L 257.898438 359.722656 C 256.070312 361.550781 253.589844 362.578125 251.007812 362.578125 C 248.421875 362.578125 245.941406 361.550781 244.113281 359.722656 L 3.554688 119.167969 C 1.726562 117.335938 0.699219 114.859375 0.699219 112.273438 C 0.699219 109.6875 1.726562 107.207031 3.554688 105.378906 Z M 3.554688 105.378906 " clip-rule="nonzero"/></clipPath><clipPath id="09dc8d24f4"><rect x="0" width="364" y="0" height="363"/></clipPath><clipPath id="7fadd2af11"><path d="M 694 137 L 1054 137 L 1054 497 L 694 497 Z M 694 137 " clip-rule="nonzero"/></clipPath><clipPath id="3266bfcfba"><path d="M 941.902344 133.191406 L 1057.691406 248.976562 L 806.214844 500.453125 L 690.429688 384.664062 Z M 941.902344 133.191406 " clip-rule="nonzero"/></clipPath><clipPath id="fe970d209d"><path d="M 948.796875 140.082031 L 1050.796875 242.082031 C 1052.625 243.910156 1053.652344 246.390625 1053.652344 248.976562 C 1053.652344 251.5625 1052.625 254.042969 1050.796875 255.871094 L 813.277344 493.390625 C 811.449219 495.21875 808.96875 496.246094 806.382812 496.246094 C 803.796875 496.246094 801.316406 495.21875 799.488281 493.390625 L 697.492188 391.390625 C 695.664062 389.5625 694.636719 387.082031 694.636719 384.496094 C 694.636719 381.910156 695.664062 379.429688 697.492188 377.601562 L 935.007812 140.082031 C 936.835938 138.253906 939.316406 137.226562 941.902344 137.226562 C 944.488281 137.226562 946.96875 138.253906 948.796875 140.082031 Z M 948.796875 140.082031 " clip-rule="nonzero"/></clipPath><clipPath id="5f881cf27f"><path d="M 0.601562 0.0390625 L 359.878906 0.0390625 L 359.878906 359.320312 L 0.601562 359.320312 Z M 0.601562 0.0390625 " clip-rule="nonzero"/></clipPath><clipPath id="6a2772e825"><path d="M 247.902344 -3.808594 L 363.691406 111.976562 L 112.214844 363.453125 L -3.570312 247.664062 Z M 247.902344 -3.808594 " clip-rule="nonzero"/></clipPath><clipPath id="d4aadf3cd6"><path d="M 254.796875 3.082031 L 356.796875 105.082031 C 358.625 106.910156 359.652344 109.390625 359.652344 111.976562 C 359.652344 114.5625 358.625 117.042969 356.796875 118.871094 L 119.277344 356.390625 C 117.449219 358.21875 114.96875 359.246094 112.382812 359.246094 C 109.796875 359.246094 107.316406 358.21875 105.488281 356.390625 L 3.492188 254.390625 C 1.664062 252.5625 0.636719 250.082031 0.636719 247.496094 C 0.636719 244.910156 1.664062 242.429688 3.492188 240.601562 L 241.007812 3.082031 C 242.835938 1.253906 245.316406 0.226562 247.902344 0.226562 C 250.488281 0.226562 252.96875 1.253906 254.796875 3.082031 Z M 254.796875 3.082031 " clip-rule="nonzero"/></clipPath><clipPath id="cbbae8e4de"><rect x="0" width="360" y="0" height="360"/></clipPath><clipPath id="378864b240"><path d="M 674 25 L 890 25 L 890 241 L 674 241 Z M 674 25 " clip-rule="nonzero"/></clipPath><clipPath id="5d1e1d05b2"><path d="M 670.953125 108.496094 L 757.59375 21.855469 L 893.648438 157.90625 L 807.007812 244.546875 Z M 670.953125 108.496094 " clip-rule="nonzero"/></clipPath><clipPath id="00e623fe81"><path d="M 677.847656 101.601562 L 750.699219 28.75 C 752.527344 26.921875 755.007812 25.894531 757.59375 25.894531 C 760.179688 25.894531 762.660156 26.921875 764.488281 28.75 L 886.710938 150.972656 C 888.539062 152.800781 889.566406 155.277344 889.566406 157.863281 C 889.566406 160.449219 888.539062 162.929688 886.710938 164.757812 L 813.859375 237.613281 C 812.03125 239.441406 809.550781 240.46875 806.964844 240.46875 C 804.378906 240.46875 801.898438 239.441406 800.070312 237.613281 L 677.847656 115.390625 C 676.019531 113.5625 674.992188 111.082031 674.992188 108.496094 C 674.992188 105.910156 676.019531 103.429688 677.847656 101.601562 Z M 677.847656 101.601562 " clip-rule="nonzero"/></clipPath><clipPath id="d73f670a0b"><path d="M 0.921875 0.679688 L 215.71875 0.679688 L 215.71875 215.480469 L 0.921875 215.480469 Z M 0.921875 0.679688 " clip-rule="nonzero"/></clipPath><clipPath id="a38d0c5468"><path d="M -3.046875 83.496094 L 83.59375 -3.144531 L 219.648438 132.90625 L 133.007812 219.546875 Z M -3.046875 83.496094 " clip-rule="nonzero"/></clipPath><clipPath id="5b64477a6f"><path d="M 3.847656 76.601562 L 76.699219 3.75 C 78.527344 1.921875 81.007812 0.894531 83.59375 0.894531 C 86.179688 0.894531 88.660156 1.921875 90.488281 3.75 L 212.710938 125.972656 C 214.539062 127.800781 215.566406 130.277344 215.566406 132.863281 C 215.566406 135.449219 214.539062 137.929688 212.710938 139.757812 L 139.859375 212.613281 C 138.03125 214.441406 135.550781 215.46875 132.964844 215.46875 C 130.378906 215.46875 127.898438 214.441406 126.070312 212.613281 L 3.847656 90.390625 C 2.019531 88.5625 0.992188 86.082031 0.992188 83.496094 C 0.992188 80.910156 2.019531 78.429688 3.847656 76.601562 Z M 3.847656 76.601562 " clip-rule="nonzero"/></clipPath><clipPath id="83998e7ac1"><rect x="0" width="216" y="0" height="216"/></clipPath><clipPath id="3a21e23679"><path d="M 281 401 L 644 401 L 644 764 L 281 764 Z M 281 401 " clip-rule="nonzero"/></clipPath><clipPath id="972a9497a6"><path d="M 276.121094 513.65625 L 392.847656 396.929688 L 647.648438 651.726562 L 530.921875 768.453125 Z M 276.121094 513.65625 " clip-rule="nonzero"/></clipPath><clipPath id="c5ca2c7d24"><path d="M 283.925781 506.761719 L 386.410156 404.277344 C 388.238281 402.449219 390.71875 401.421875 393.304688 401.421875 C 395.890625 401.421875 398.367188 402.449219 400.195312 404.277344 L 640.753906 644.832031 C 642.582031 646.664062 643.609375 649.140625 643.609375 651.726562 C 643.609375 654.3125 642.582031 656.792969 640.753906 658.621094 L 538.269531 761.105469 C 536.441406 762.933594 533.960938 763.960938 531.375 763.960938 C 528.789062 763.960938 526.308594 762.933594 524.480469 761.105469 L 283.925781 520.550781 C 282.097656 518.722656 281.070312 516.242188 281.070312 513.65625 C 281.070312 511.070312 282.097656 508.589844 283.925781 506.761719 Z M 283.925781 506.761719 " clip-rule="nonzero"/></clipPath><clipPath id="f8c040af47"><path d="M 0 0.28125 L 362.71875 0.28125 L 362.71875 363 L 0 363 Z M 0 0.28125 " clip-rule="nonzero"/></clipPath><clipPath id="953f6fa0b7"><path d="M -4.878906 112.65625 L 111.847656 -4.070312 L 366.648438 250.726562 L 249.921875 367.453125 Z M -4.878906 112.65625 " clip-rule="nonzero"/></clipPath><clipPath id="7b4d3432e6"><path d="M 2.925781 105.761719 L 105.410156 3.277344 C 107.238281 1.449219 109.71875 0.421875 112.304688 0.421875 C 114.890625 0.421875 117.367188 1.449219 119.195312 3.277344 L 359.753906 243.832031 C 361.582031 245.664062 362.609375 248.140625 362.609375 250.726562 C 362.609375 253.3125 361.582031 255.792969 359.753906 257.621094 L 257.269531 360.105469 C 255.441406 361.933594 252.960938 362.960938 250.375 362.960938 C 247.789062 362.960938 245.308594 361.933594 243.480469 360.105469 L 2.925781 119.550781 C 1.097656 117.722656 0.0703125 115.242188 0.0703125 112.65625 C 0.0703125 110.070312 1.097656 107.589844 2.925781 105.761719 Z M 2.925781 105.761719 " clip-rule="nonzero"/></clipPath><clipPath id="c0e7740a7c"><rect x="0" width="363" y="0" height="363"/></clipPath><clipPath id="c1c1bae9b6"><path d="M 553 401 L 916 401 L 916 764 L 553 764 Z M 553 401 " clip-rule="nonzero"/></clipPath><clipPath id="c61a59c6a9"><path d="M 548.328125 513.65625 L 665.054688 396.929688 L 919.855469 651.726562 L 803.128906 768.453125 Z M 548.328125 513.65625 " clip-rule="nonzero"/></clipPath><clipPath id="5e71e6fec4"><path d="M 556.132812 506.761719 L 658.617188 404.277344 C 660.445312 402.449219 662.925781 401.421875 665.511719 401.421875 C 668.097656 401.421875 670.574219 402.449219 672.40625 404.277344 L 912.960938 644.832031 C 914.789062 646.664062 915.816406 649.140625 915.816406 651.726562 C 915.816406 654.3125 914.789062 656.792969 912.960938 658.621094 L 810.476562 761.105469 C 808.648438 762.933594 806.167969 763.960938 803.582031 763.960938 C 800.996094 763.960938 798.515625 762.933594 796.6875 761.105469 L 556.132812 520.550781 C 554.304688 518.722656 553.277344 516.242188 553.277344 513.65625 C 553.277344 511.070312 554.304688 508.589844 556.132812 506.761719 Z M 556.132812 506.761719 " clip-rule="nonzero"/></clipPath><clipPath id="1c4eb47080"><path d="M 0.238281 0.28125 L 362.878906 0.28125 L 362.878906 363 L 0.238281 363 Z M 0.238281 0.28125 " clip-rule="nonzero"/></clipPath><clipPath id="38a3a4de0b"><path d="M -4.671875 112.65625 L 112.054688 -4.070312 L 366.855469 250.726562 L 250.128906 367.453125 Z M -4.671875 112.65625 " clip-rule="nonzero"/></clipPath><clipPath id="8af07aca69"><path d="M 3.132812 105.761719 L 105.617188 3.277344 C 107.445312 1.449219 109.925781 0.421875 112.511719 0.421875 C 115.097656 0.421875 117.574219 1.449219 119.40625 3.277344 L 359.960938 243.832031 C 361.789062 245.664062 362.816406 248.140625 362.816406 250.726562 C 362.816406 253.3125 361.789062 255.792969 359.960938 257.621094 L 257.476562 360.105469 C 255.648438 361.933594 253.167969 362.960938 250.582031 362.960938 C 247.996094 362.960938 245.515625 361.933594 243.6875 360.105469 L 3.132812 119.550781 C 1.304688 117.722656 0.277344 115.242188 0.277344 112.65625 C 0.277344 110.070312 1.304688 107.589844 3.132812 105.761719 Z M 3.132812 105.761719 " clip-rule="nonzero"/></clipPath><clipPath id="e59e546729"><rect x="0" width="363" y="0" height="363"/></clipPath><clipPath id="814f7339e9"><path d="M 4 274 L 364 274 L 364 634 L 4 634 Z M 4 274 " clip-rule="nonzero"/></clipPath><clipPath id="0dca513034"><path d="M 251.605469 270.199219 L 367.390625 385.988281 L 115.917969 637.464844 L 0.128906 521.675781 Z M 251.605469 270.199219 " clip-rule="nonzero"/></clipPath><clipPath id="8165dc1210"><path d="M 258.5 277.09375 L 360.496094 379.09375 C 362.324219 380.921875 363.351562 383.402344 363.351562 385.988281 C 363.351562 388.574219 362.324219 391.054688 360.496094 392.882812 L 122.980469 630.398438 C 121.152344 632.230469 118.671875 633.257812 116.085938 633.257812 C 113.5 633.257812 111.019531 632.230469 109.191406 630.398438 L 7.191406 528.402344 C 5.363281 526.574219 4.335938 524.09375 4.335938 521.507812 C 4.335938 518.921875 5.363281 516.441406 7.191406 514.613281 L 244.710938 277.09375 C 246.539062 275.265625 249.019531 274.238281 251.605469 274.238281 C 254.191406 274.238281 256.671875 275.265625 258.5 277.09375 Z M 258.5 277.09375 " clip-rule="nonzero"/></clipPath><clipPath id="b8e01e9cb4"><path d="M 0.121094 0.078125 L 359.398438 0.078125 L 359.398438 359.359375 L 0.121094 359.359375 Z M 0.121094 0.078125 " clip-rule="nonzero"/></clipPath><clipPath id="8bf62df37d"><path d="M 247.605469 -3.800781 L 363.390625 111.988281 L 111.917969 363.464844 L -3.871094 247.675781 Z M 247.605469 -3.800781 " clip-rule="nonzero"/></clipPath><clipPath id="f6f3bdad1e"><path d="M 254.5 3.09375 L 356.496094 105.09375 C 358.324219 106.921875 359.351562 109.402344 359.351562 111.988281 C 359.351562 114.574219 358.324219 117.054688 356.496094 118.882812 L 118.980469 356.398438 C 117.152344 358.230469 114.671875 359.257812 112.085938 359.257812 C 109.5 359.257812 107.019531 358.230469 105.191406 356.398438 L 3.191406 254.402344 C 1.363281 252.574219 0.335938 250.09375 0.335938 247.507812 C 0.335938 244.921875 1.363281 242.441406 3.191406 240.613281 L 240.710938 3.09375 C 242.539062 1.265625 245.019531 0.238281 247.605469 0.238281 C 250.191406 0.238281 252.671875 1.265625 254.5 3.09375 Z M 254.5 3.09375 " clip-rule="nonzero"/></clipPath><clipPath id="8e199731b8"><rect x="0" width="360" y="0" height="360"/></clipPath><clipPath id="7bf7e5e3fe"><path d="M 169 530 L 385 530 L 385 745 L 169 745 Z M 169 530 " clip-rule="nonzero"/></clipPath><clipPath id="986f70bc52"><path d="M 165.707031 612.601562 L 252.347656 525.960938 L 388.398438 662.011719 L 301.757812 748.652344 Z M 165.707031 612.601562 " clip-rule="nonzero"/></clipPath><clipPath id="2e5d7ecefd"><path d="M 172.601562 605.707031 L 245.453125 532.855469 C 247.28125 531.027344 249.761719 530 252.347656 530 C 254.933594 530 257.414062 531.027344 259.242188 532.855469 L 381.464844 655.074219 C 383.292969 656.902344 384.320312 659.382812 384.320312 661.96875 C 384.320312 664.554688 383.292969 667.035156 381.464844 668.863281 L 308.609375 741.714844 C 306.78125 743.546875 304.304688 744.570312 301.71875 744.570312 C 299.132812 744.570312 296.652344 743.546875 294.824219 741.714844 L 172.601562 619.496094 C 170.773438 617.667969 169.746094 615.1875 169.746094 612.601562 C 169.746094 610.015625 170.773438 607.535156 172.601562 605.707031 Z M 172.601562 605.707031 " clip-rule="nonzero"/></clipPath><clipPath id="e3cf541010"><path d="M 0.71875 0 L 215.519531 0 L 215.519531 214.71875 L 0.71875 214.71875 Z M 0.71875 0 " clip-rule="nonzero"/></clipPath><clipPath id="506a452b08"><path d="M -3.292969 82.601562 L 83.347656 -4.039062 L 219.398438 132.011719 L 132.757812 218.652344 Z M -3.292969 82.601562 " clip-rule="nonzero"/></clipPath><clipPath id="e5e79bc786"><path d="M 3.601562 75.707031 L 76.453125 2.855469 C 78.28125 1.027344 80.761719 0 83.347656 0 C 85.933594 0 88.414062 1.027344 90.242188 2.855469 L 212.464844 125.074219 C 214.292969 126.902344 215.320312 129.382812 215.320312 131.96875 C 215.320312 134.554688 214.292969 137.035156 212.464844 138.863281 L 139.609375 211.714844 C 137.78125 213.546875 135.304688 214.570312 132.71875 214.570312 C 130.132812 214.570312 127.652344 213.546875 125.824219 211.714844 L 3.601562 89.496094 C 1.773438 87.667969 0.746094 85.1875 0.746094 82.601562 C 0.746094 80.015625 1.773438 77.535156 3.601562 75.707031 Z M 3.601562 75.707031 " clip-rule="nonzero"/></clipPath><clipPath id="d678718902"><rect x="0" width="216" y="0" height="215"/></clipPath><clipPath id="db7119ec2d"><path d="M 33 162 L 248 162 L 248 378 L 33 378 Z M 33 162 " clip-rule="nonzero"/></clipPath><clipPath id="39052ef678"><path d="M 165.027344 158.871094 L 251.667969 245.511719 L 115.617188 381.5625 L 28.972656 294.921875 Z M 165.027344 158.871094 " clip-rule="nonzero"/></clipPath><clipPath id="3ab4b12614"><path d="M 171.921875 165.765625 L 244.773438 238.617188 C 246.601562 240.445312 247.628906 242.925781 247.628906 245.511719 C 247.628906 248.097656 246.601562 250.574219 244.773438 252.40625 L 122.550781 374.625 C 120.722656 376.453125 118.242188 377.480469 115.65625 377.480469 C 113.070312 377.480469 110.59375 376.453125 108.761719 374.625 L 35.910156 301.773438 C 34.082031 299.945312 33.054688 297.464844 33.054688 294.878906 C 33.054688 292.292969 34.082031 289.8125 35.910156 287.984375 L 158.132812 165.765625 C 159.960938 163.933594 162.441406 162.90625 165.027344 162.90625 C 167.613281 162.90625 170.09375 163.933594 171.921875 165.765625 Z M 171.921875 165.765625 " clip-rule="nonzero"/></clipPath><clipPath id="4ca751b486"><path d="M 0 0.71875 L 214.71875 0.71875 L 214.71875 215.519531 L 0 215.519531 Z M 0 0.71875 " clip-rule="nonzero"/></clipPath><clipPath id="4593027bd3"><path d="M 132.027344 -3.128906 L 218.667969 83.511719 L 82.617188 219.5625 L -4.027344 132.921875 Z M 132.027344 -3.128906 " clip-rule="nonzero"/></clipPath><clipPath id="e6a442c615"><path d="M 138.921875 3.765625 L 211.773438 76.617188 C 213.601562 78.445312 214.628906 80.925781 214.628906 83.511719 C 214.628906 86.097656 213.601562 88.574219 211.773438 90.40625 L 89.550781 212.625 C 87.722656 214.453125 85.242188 215.480469 82.65625 215.480469 C 80.070312 215.480469 77.59375 214.453125 75.761719 212.625 L 2.910156 139.773438 C 1.082031 137.945312 0.0546875 135.464844 0.0546875 132.878906 C 0.0546875 130.292969 1.082031 127.8125 2.910156 125.984375 L 125.132812 3.765625 C 126.960938 1.933594 129.441406 0.90625 132.027344 0.90625 C 134.613281 0.90625 137.09375 1.933594 138.921875 3.765625 Z M 138.921875 3.765625 " clip-rule="nonzero"/></clipPath><clipPath id="7562273c14"><rect x="0" width="215" y="0" height="216"/></clipPath><clipPath id="5fd27287e7"><path d="M 812 392 L 1028 392 L 1028 608 L 812 608 Z M 812 392 " clip-rule="nonzero"/></clipPath><clipPath id="4316aaf96c"><path d="M 944.539062 388.953125 L 1031.179688 475.59375 L 895.125 611.648438 L 808.484375 525.007812 Z M 944.539062 388.953125 " clip-rule="nonzero"/></clipPath><clipPath id="0f5f29028f"><path d="M 951.429688 395.847656 L 1024.285156 468.699219 C 1026.113281 470.527344 1027.140625 473.007812 1027.140625 475.59375 C 1027.140625 478.179688 1026.113281 480.660156 1024.285156 482.488281 L 902.0625 604.710938 C 900.234375 606.539062 897.753906 607.566406 895.167969 607.566406 C 892.582031 607.566406 890.101562 606.539062 888.273438 604.710938 L 815.421875 531.859375 C 813.59375 530.03125 812.566406 527.550781 812.566406 524.964844 C 812.566406 522.378906 813.59375 519.898438 815.421875 518.070312 L 937.644531 395.847656 C 939.472656 394.019531 941.953125 392.992188 944.539062 392.992188 C 947.125 392.992188 949.601562 394.019531 951.429688 395.847656 Z M 951.429688 395.847656 " clip-rule="nonzero"/></clipPath><clipPath id="da04c76fb0"><path d="M 0.441406 0.878906 L 215.238281 0.878906 L 215.238281 215.679688 L 0.441406 215.679688 Z M 0.441406 0.878906 " clip-rule="nonzero"/></clipPath><clipPath id="fc77687d24"><path d="M 132.539062 -3.046875 L 219.179688 83.59375 L 83.125 219.648438 L -3.515625 133.007812 Z M 132.539062 -3.046875 " clip-rule="nonzero"/></clipPath><clipPath id="5a13241db6"><path d="M 139.429688 3.847656 L 212.285156 76.699219 C 214.113281 78.527344 215.140625 81.007812 215.140625 83.59375 C 215.140625 86.179688 214.113281 88.660156 212.285156 90.488281 L 90.0625 212.710938 C 88.234375 214.539062 85.753906 215.566406 83.167969 215.566406 C 80.582031 215.566406 78.101562 214.539062 76.273438 212.710938 L 3.421875 139.859375 C 1.59375 138.03125 0.566406 135.550781 0.566406 132.964844 C 0.566406 130.378906 1.59375 127.898438 3.421875 126.070312 L 125.644531 3.847656 C 127.472656 2.019531 129.953125 0.992188 132.539062 0.992188 C 135.125 0.992188 137.601562 2.019531 139.429688 3.847656 Z M 139.429688 3.847656 " clip-rule="nonzero"/></clipPath><clipPath id="ec10359b92"><rect x="0" width="216" y="0" height="216"/></clipPath><clipPath id="fe778cdac3"><rect x="0" width="1058" y="0" height="768"/></clipPath></defs><g transform="matrix(1, 0, 0, 1, 47, -0.000000000000057351)"><g clip-path="url(#fe778cdac3)"><g clip-path="url(#e32969f701)"><g clip-path="url(#f4c5eb26f6)"><g clip-path="url(#7bab306d19)"><g transform="matrix(1, 0, 0, 1, 144, 4)"><g clip-path="url(#735006f8ce)"><g clip-path="url(#379dddd347)"><g clip-path="url(#1214eddc36)"><g clip-path="url(#c7387a2da8)"><path fill="#f90267" d="M -3.65625 112.273438 L 112.617188 -4 L 366.960938 250.34375 L 250.691406 366.617188 Z M -3.65625 112.273438 " fill-opacity="1" fill-rule="nonzero"/></g></g></g></g></g></g></g></g><g clip-path="url(#95ae1d1b2c)"><g clip-path="url(#676139ccdb)"><g clip-path="url(#5c5095c5da)"><g transform="matrix(1, 0, 0, 1, 415, 4)"><g clip-path="url(#09dc8d24f4)"><g clip-path="url(#7ba5374798)"><g clip-path="url(#e7f0a0ad53)"><g clip-path="url(#3ace4a05d2)"><path fill="#3173c7" d="M -3.339844 112.273438 L 112.933594 -4 L 367.277344 250.34375 L 251.003906 366.617188 Z M -3.339844 112.273438 " fill-opacity="1" fill-rule="nonzero"/></g></g></g></g></g></g></g></g><g clip-path="url(#7fadd2af11)"><g clip-path="url(#3266bfcfba)"><g clip-path="url(#fe970d209d)"><g transform="matrix(1, 0, 0, 1, 694, 137)"><g clip-path="url(#cbbae8e4de)"><g clip-path="url(#5f881cf27f)"><g clip-path="url(#6a2772e825)"><g clip-path="url(#d4aadf3cd6)"><path fill="#2d45ac" d="M 247.902344 -3.808594 L 363.691406 111.976562 L 112.214844 363.453125 L -3.570312 247.664062 Z M 247.902344 -3.808594 " fill-opacity="1" fill-rule="nonzero"/></g></g></g></g></g></g></g></g><g clip-path="url(#378864b240)"><g clip-path="url(#5d1e1d05b2)"><g clip-path="url(#00e623fe81)"><g transform="matrix(1, 0, 0, 1, 674, 25)"><g clip-path="url(#83998e7ac1)"><g clip-path="url(#d73f670a0b)"><g clip-path="url(#a38d0c5468)"><g clip-path="url(#5b64477a6f)"><path fill="#47b8ec" d="M -3.046875 83.496094 L 83.59375 -3.144531 L 219.648438 132.90625 L 133.007812 219.546875 Z M -3.046875 83.496094 " fill-opacity="1" fill-rule="nonzero"/></g></g></g></g></g></g></g></g><g clip-path="url(#3a21e23679)"><g clip-path="url(#972a9497a6)"><g clip-path="url(#c5ca2c7d24)"><g transform="matrix(1, 0, 0, 1, 281, 401)"><g clip-path="url(#c0e7740a7c)"><g clip-path="url(#f8c040af47)"><g clip-path="url(#953f6fa0b7)"><g clip-path="url(#7b4d3432e6)"><path fill="#feba11" d="M -3.96875 112.65625 L 112.304688 -3.617188 L 366.648438 250.726562 L 250.375 367 Z M -3.96875 112.65625 " fill-opacity="1" fill-rule="nonzero"/></g></g></g></g></g></g></g></g><g clip-path="url(#c1c1bae9b6)"><g clip-path="url(#c61a59c6a9)"><g clip-path="url(#5e71e6fec4)"><g transform="matrix(1, 0, 0, 1, 553, 401)"><g clip-path="url(#e59e546729)"><g clip-path="url(#1c4eb47080)"><g clip-path="url(#38a3a4de0b)"><g clip-path="url(#8af07aca69)"><path fill="#752fbb" d="M -3.761719 112.65625 L 112.511719 -3.617188 L 366.855469 250.726562 L 250.582031 367 Z M -3.761719 112.65625 " fill-opacity="1" fill-rule="nonzero"/></g></g></g></g></g></g></g></g><g clip-path="url(#814f7339e9)"><g clip-path="url(#0dca513034)"><g clip-path="url(#8165dc1210)"><g transform="matrix(1, 0, 0, 1, 4, 274)"><g clip-path="url(#8e199731b8)"><g clip-path="url(#b8e01e9cb4)"><g clip-path="url(#8bf62df37d)"><g clip-path="url(#f6f3bdad1e)"><path fill="#f12730" d="M 247.605469 -3.800781 L 363.390625 111.988281 L 111.917969 363.464844 L -3.871094 247.675781 Z M 247.605469 -3.800781 " fill-opacity="1" fill-rule="nonzero"/></g></g></g></g></g></g></g></g><g clip-path="url(#7bf7e5e3fe)"><g clip-path="url(#986f70bc52)"><g clip-path="url(#2e5d7ecefd)"><g transform="matrix(1, 0, 0, 1, 169, 530)"><g clip-path="url(#d678718902)"><g clip-path="url(#e3cf541010)"><g clip-path="url(#506a452b08)"><g clip-path="url(#e5e79bc786)"><path fill="#64b93d" d="M -3.292969 82.601562 L 83.347656 -4.039062 L 219.398438 132.011719 L 132.757812 218.652344 Z M -3.292969 82.601562 " fill-opacity="1" fill-rule="nonzero"/></g></g></g></g></g></g></g></g><g clip-path="url(#db7119ec2d)"><g clip-path="url(#39052ef678)"><g clip-path="url(#3ab4b12614)"><g transform="matrix(1, 0, 0, 1, 33, 162)"><g clip-path="url(#7562273c14)"><g clip-path="url(#4ca751b486)"><g clip-path="url(#4593027bd3)"><g clip-path="url(#e6a442c615)"><path fill="#e8541d" d="M 132.027344 -3.128906 L 218.667969 83.511719 L 82.617188 219.5625 L -4.027344 132.921875 Z M 132.027344 -3.128906 " fill-opacity="1" fill-rule="nonzero"/></g></g></g></g></g></g></g></g><g clip-path="url(#5fd27287e7)"><g clip-path="url(#4316aaf96c)"><g clip-path="url(#0f5f29028f)"><g transform="matrix(1, 0, 0, 1, 812, 392)"><g clip-path="url(#ec10359b92)"><g clip-path="url(#da04c76fb0)"><g clip-path="url(#fc77687d24)"><g clip-path="url(#5a13241db6)"><path fill="#9146ff" d="M 132.539062 -3.046875 L 219.179688 83.59375 L 83.125 219.648438 L -3.515625 133.007812 Z M 132.539062 -3.046875 " fill-opacity="1" fill-rule="nonzero"/></g></g></g></g></g></g></g></g></g></g></svg>